<?xml version="1.0" encoding="UTF-8" standalone="no"?>
<!-- Generator: Adobe Fireworks CS6, Export SVG Extension by Aaron Beall (http://fireworks.abeall.com) . Version: 0.6.1  -->
<!DOCTYPE svg PUBLIC "-//W3C//DTD SVG 1.1//EN" "http://www.w3.org/Graphics/SVG/1.1/DTD/svg11.dtd">
<svg id="ipresso-logo-white-Strona%201" viewBox="0 0 808 216" style="background-color:#ffffff00" version="1.1" xmlns="http://www.w3.org/2000/svg" xmlns:xlink="http://www.w3.org/1999/xlink" xml:space="preserve" x="0px" y="0px" width="808px" height="216px">
	<g id="Warstwa%201">
		<path d="M 754.9914 115.4483 C 754.9914 133.2095 748.1146 157.8462 722.3267 157.8462 C 695.3926 157.8462 689.6619 132.0637 689.6619 115.4483 C 689.6619 98.2599 696.5387 73.0504 722.3267 73.0504 C 749.2607 73.0504 754.9914 98.2599 754.9914 115.4483 ZM 788.8023 115.4483 C 788.8023 74.7692 764.7335 47.2679 722.3267 47.2679 C 689.0888 47.2679 662.7278 63.3103 656.4241 108 L 656.4241 123.4695 C 656.4241 126.9072 661.0086 143.5226 661.0086 144.6684 C 671.3238 175.6074 700.5502 184.2016 722.3267 184.2016 C 764.7335 184.2016 788.8023 154.9814 788.8023 115.4483 Z" fill="#ffffff"/>
		<path d="M 395.6791 72.4775 C 398.5444 73.0504 402.5559 74.7692 405.9943 77.6339 C 407.7135 79.3528 414.0172 90.2387 414.0172 94.2493 L 414.0172 99.9788 L 363.0143 99.9788 L 363.0143 97.687 C 364.7335 81.0716 377.341 71.9045 389.9484 71.9045 C 391.0945 71.9045 393.9599 71.9045 395.6791 72.4775 ZM 447.8281 113.7294 C 447.8281 79.9257 434.6476 47.2679 390.5215 47.2679 C 360.149 47.2679 334.361 64.4562 328.6304 106.2812 L 328.6304 128.626 C 328.6304 133.2095 332.6418 145.8143 333.788 149.252 C 345.8224 179.618 377.341 184.2016 397.9713 184.2016 C 412.298 184.2016 427.1977 182.4828 443.2436 176.7533 C 443.2436 153.2626 443.2436 152.1167 442.6705 151.5438 C 434.6476 154.9814 413.4441 158.992 403.1289 158.992 C 390.5215 158.992 367.5988 154.9814 362.4413 135.5013 C 361.8682 132.6366 360.7221 127.4801 360.7221 125.7613 C 360.7221 124.6154 360.7221 125.1883 361.2951 124.6154 L 447.255 124.6154 C 447.8281 121.1777 447.8281 114.8753 447.8281 113.7294 Z" fill="#ffffff"/>
		<path d="M 173.3295 28.3607 C 193.9599 29.5066 205.4212 36.382 205.4212 53.5703 C 205.4212 81.6446 172.1834 82.7905 156.7106 82.7905 C 155.5645 82.7905 146.9685 82.7905 141.8109 82.2175 L 141.8109 28.3607 L 173.3295 28.3607 ZM 171.6103 0.2865 L 108.5731 0.2865 L 108.5731 180.7639 L 141.2378 180.7639 L 141.2378 110.2918 L 165.3066 110.8647 C 193.3868 110.8647 240.3782 97.687 240.3782 54.1432 C 240.3782 18.0477 210.5788 0.8594 171.6103 0.2865 Z" fill="#ffffff"/>
		<path d="M 88.5158 35.809 L 78.4928 215.7135 L 0.5559 213.4218 L 11.1519 31.7984 L 88.5158 35.809 Z" fill="#b70000"/>
		<path d="M 59.1433 66.1751 L 58.5702 89.6658 L 41.3782 89.0928 L 41.3782 66.1751 L 59.1433 66.1751 ZM 56.851 101.6976 L 53.4126 191.6499 L 36.7937 191.6499 L 39.659 121.1777 L 28.9169 119.4589 L 29.9169 99.4058 L 56.851 101.6976 Z" fill="#ffffff"/>
		<path d="M 772.5428 3.0802 C 768.7322 5.1337 765.7731 8.0653 763.6379 11.8751 C 761.5031 15.6848 760.4355 19.6567 760.4355 23.7907 C 760.4355 27.8977 761.476 31.829 763.584 35.6117 C 765.692 39.3945 768.6241 42.3396 772.3942 44.4201 C 776.1642 46.5141 780.11 47.5544 784.2313 47.5544 C 788.3391 47.5544 792.2849 46.5141 796.0683 44.4201 C 799.8384 42.3396 802.7706 39.3945 804.8651 35.6117 C 806.946 31.829 808 27.8977 808 23.7907 C 808 19.6567 806.9325 15.6848 804.811 11.8751 C 802.6896 8.0653 799.7303 5.1337 795.9197 3.0802 C 792.1092 1.0267 788.2175 0 784.2313 0 C 780.2316 0 776.3399 1.0267 772.5428 3.0802 L 772.5428 3.0802 ZM 793.7847 6.8495 C 796.8926 8.5247 799.3113 10.9294 801.0545 14.0502 C 802.7976 17.1709 803.676 20.4133 803.676 23.7907 C 803.676 27.1546 802.8112 30.37 801.1085 33.4502 C 799.3925 36.5304 796.9872 38.9351 793.9064 40.6509 C 790.812 42.3801 787.5823 43.2313 784.2313 43.2313 C 780.8667 43.2313 777.6371 42.3801 774.5562 40.6509 C 771.4619 38.9351 769.0566 36.5304 767.3405 33.4502 C 765.6108 30.37 764.7595 27.1546 764.7595 23.7907 C 764.7595 20.4133 765.6244 17.1709 767.381 14.0502 C 769.1376 10.9294 771.5564 8.5247 774.6643 6.8495 C 777.7587 5.1742 780.9477 4.3231 784.2313 4.3231 C 787.4879 4.3231 790.6769 5.1742 793.7847 6.8495 L 793.7847 6.8495 ZM 777.7318 38.0435 L 777.7318 25.9388 L 780.4612 25.9388 C 782.0828 25.8037 783.3259 26.1009 784.1772 26.8574 C 785.0286 27.8842 786.4609 30.0862 788.4877 33.4637 L 791.0417 38.0435 L 795.8926 38.0435 L 792.6362 32.3694 C 791.0687 29.681 789.7444 27.7626 788.6769 26.6142 C 788.0959 26.0198 787.3392 25.5064 786.4068 25.0741 C 788.7445 24.885 790.6228 24.0339 792.0415 22.5073 C 793.4469 20.9807 794.163 19.1839 794.163 17.1304 C 794.163 15.6848 793.7441 14.3068 792.9064 13.0099 C 792.0686 11.713 790.9336 10.8078 789.5147 10.2944 C 788.0959 9.7811 785.8123 9.5109 782.6638 9.5109 L 773.4077 9.5109 L 773.4077 38.0435 L 777.7318 38.0435 L 777.7318 38.0435 ZM 777.7318 13.834 L 782.799 13.834 C 784.9745 13.834 786.4609 13.9826 787.2715 14.2798 C 788.0689 14.577 788.6904 15.0364 789.1499 15.6308 C 789.6094 16.2387 789.839 16.9142 789.839 17.6708 C 789.839 18.8596 789.366 19.8188 788.4202 20.5348 C 787.4743 21.2644 785.7177 21.6156 783.1368 21.6156 L 777.7318 21.6156 L 777.7318 13.834 L 777.7318 13.834 Z" fill="#ffffff"/>
		<path d="M 646.6819 54.1432 L 646.6819 79.3528 C 638.0859 76.4881 618.0286 72.4775 608.2866 72.4775 C 600.8367 72.4775 587.0831 73.0504 587.0831 86.2281 C 587.0831 110.8647 651.8395 91.3846 651.8395 140.6578 C 651.8395 177.3263 617.4556 184.2016 593.9599 184.2016 C 580.7794 184.2016 568.745 182.4828 556.1375 177.3263 L 556.1375 152.1167 C 567.0258 155.5544 580.2063 158.992 591.6676 158.992 C 599.6906 158.992 620.894 156.7003 620.894 142.9496 C 620.894 130.3448 601.9828 128.0531 596.2521 126.3342 C 588.8023 123.4695 581.3524 122.3236 573.9026 118.8859 C 564.1605 114.3024 556.1375 102.2706 556.1375 94.2493 L 556.1375 83.9363 C 562.4413 51.2785 585.937 47.2679 606.5673 47.2679 C 620.3209 47.2679 632.9283 48.4138 646.6819 54.1432 Z" fill="#ffffff"/>
		<path d="M 545.8223 54.1432 L 545.8223 79.3528 C 533.788 76.4881 519.4613 72.4775 506.8539 72.4775 C 499.404 72.4775 485.6504 73.6233 485.6504 85.6552 C 485.6504 110.2918 550.9799 93.1034 550.9799 140.0849 C 550.9799 177.3263 516.5959 184.2016 493.1003 184.2016 C 480.4928 184.2016 467.8854 182.4828 455.2779 177.8992 L 455.2779 152.1167 C 465.5931 155.5544 479.9198 158.992 490.808 158.992 C 498.2579 158.992 519.4613 157.2732 519.4613 142.9496 C 519.4613 136.6472 514.8768 132.6366 508.5731 130.3448 C 502.2693 128.0531 495.3925 125.7613 488.5157 124.6154 C 475.3352 122.3236 455.2779 110.2918 455.2779 95.9682 L 455.2779 82.2175 C 462.7278 50.7056 485.6504 47.2679 505.7077 47.2679 C 519.4613 47.2679 532.0688 48.4138 545.8223 54.1432 Z" fill="#ffffff"/>
		<path d="M 332.6418 47.2679 L 332.6418 75.3422 L 321.7536 75.3422 C 316.596 76.4881 310.2923 77.061 305.7077 78.7798 C 303.9885 78.7798 286.7966 87.947 286.7966 93.1034 L 286.7966 180.7639 L 255.2779 180.7639 L 255.2779 50.1326 L 281.0659 50.1326 C 282.212 55.8621 282.7851 62.1645 284.5043 68.4668 C 291.9542 54.7162 307.4269 47.2679 317.7421 47.2679 L 332.6418 47.2679 Z" fill="#ffffff"/>
	</g>
</svg>